<?xml version="1.0" encoding="UTF-8" standalone="no"?><svg xmlns="http://www.w3.org/2000/svg" xmlns:xlink="http://www.w3.org/1999/xlink" contentScriptType="application/ecmascript" contentStyleType="text/css" height="559px" preserveAspectRatio="none" style="width:1243px;height:559px;" version="1.1" viewBox="0 0 1243 559" width="1243px" zoomAndPan="magnify"><defs><filter height="300%" id="fmijfy63wn7vx" width="300%" x="-1" y="-1"><feGaussianBlur result="blurOut" stdDeviation="2.0"/><feColorMatrix in="blurOut" result="blurOut2" type="matrix" values="0 0 0 0 0 0 0 0 0 0 0 0 0 0 0 0 0 0 .4 0"/><feOffset dx="4.0" dy="4.0" in="blurOut2" result="blurOut3"/><feBlend in="SourceGraphic" in2="blurOut3" mode="normal"/></filter></defs><g><!--MD5=[a9e0737ab0eb25b1ac06880e04977c5b]
class Rn1_statistic--><rect codeLine="1" fill="#FEFECE" filter="url(#fmijfy63wn7vx)" height="60.8047" id="Rn1_statistic" style="stroke:#A80036;stroke-width:1.5;" width="170" x="77.5" y="242.5"/><ellipse cx="118.6" cy="258.5" fill="#B4A7E5" rx="11" ry="11" style="stroke:#A80036;stroke-width:1.0;"/><path d="M114.5219,254.2656 L114.5219,252.1094 L121.9125,252.1094 L121.9125,254.2656 L119.4438,254.2656 L119.4438,262.3438 L121.9125,262.3438 L121.9125,264.5 L114.5219,264.5 L114.5219,262.3438 L116.9906,262.3438 L116.9906,254.2656 L114.5219,254.2656 Z " fill="#000000"/><text fill="#000000" font-family="sans-serif" font-size="12" font-style="italic" lengthAdjust="spacingAndGlyphs" textLength="80" x="138.4" y="262.6543">Rn1_statistic</text><line style="stroke:#A80036;stroke-width:1.5;" x1="78.5" x2="246.5" y1="274.5" y2="274.5"/><line style="stroke:#A80036;stroke-width:1.5;" x1="78.5" x2="246.5" y1="282.5" y2="282.5"/><ellipse cx="88.5" cy="293.5" fill="#84BE84" rx="3" ry="3" style="stroke:#038048;stroke-width:1.0;"/><text fill="#000000" font-family="sans-serif" font-size="11" font-style="italic" lengthAdjust="spacingAndGlyphs" textLength="144" x="97.5" y="296.7104">double calc_statistic(Rn1)</text><!--MD5=[3adf2ff96b150324db2a91864f58513e]
class Rn1_KS--><rect fill="#FEFECE" filter="url(#fmijfy63wn7vx)" height="48" id="Rn1_KS" style="stroke:#A80036;stroke-width:1.5;" width="77" x="7" y="382.5"/><ellipse cx="22" cy="398.5" fill="#ADD1B2" rx="11" ry="11" style="stroke:#A80036;stroke-width:1.0;"/><path d="M24.9688,404.1406 Q24.3906,404.4375 23.75,404.5781 Q23.1094,404.7344 22.4063,404.7344 Q19.9063,404.7344 18.5781,403.0938 Q17.2656,401.4375 17.2656,398.3125 Q17.2656,395.1875 18.5781,393.5313 Q19.9063,391.875 22.4063,391.875 Q23.1094,391.875 23.75,392.0313 Q24.4063,392.1875 24.9688,392.4844 L24.9688,395.2031 Q24.3438,394.625 23.75,394.3594 Q23.1563,394.0781 22.5313,394.0781 Q21.1875,394.0781 20.5,395.1563 Q19.8125,396.2188 19.8125,398.3125 Q19.8125,400.4063 20.5,401.4844 Q21.1875,402.5469 22.5313,402.5469 Q23.1563,402.5469 23.75,402.2813 Q24.3438,402 24.9688,401.4219 L24.9688,404.1406 Z " fill="#000000"/><text fill="#000000" font-family="sans-serif" font-size="12" lengthAdjust="spacingAndGlyphs" textLength="45" x="36" y="402.6543">Rn1_KS</text><line style="stroke:#A80036;stroke-width:1.5;" x1="8" x2="83" y1="414.5" y2="414.5"/><line style="stroke:#A80036;stroke-width:1.5;" x1="8" x2="83" y1="422.5" y2="422.5"/><!--MD5=[4de0655f174dcc5b34c53463553c4d0e]
class Rn1_CvM--><rect fill="#FEFECE" filter="url(#fmijfy63wn7vx)" height="48" id="Rn1_CvM" style="stroke:#A80036;stroke-width:1.5;" width="86" x="119.5" y="382.5"/><ellipse cx="134.5" cy="398.5" fill="#ADD1B2" rx="11" ry="11" style="stroke:#A80036;stroke-width:1.0;"/><path d="M137.4688,404.1406 Q136.8906,404.4375 136.25,404.5781 Q135.6094,404.7344 134.9063,404.7344 Q132.4063,404.7344 131.0781,403.0938 Q129.7656,401.4375 129.7656,398.3125 Q129.7656,395.1875 131.0781,393.5313 Q132.4063,391.875 134.9063,391.875 Q135.6094,391.875 136.25,392.0313 Q136.9063,392.1875 137.4688,392.4844 L137.4688,395.2031 Q136.8438,394.625 136.25,394.3594 Q135.6563,394.0781 135.0313,394.0781 Q133.6875,394.0781 133,395.1563 Q132.3125,396.2188 132.3125,398.3125 Q132.3125,400.4063 133,401.4844 Q133.6875,402.5469 135.0313,402.5469 Q135.6563,402.5469 136.25,402.2813 Q136.8438,402 137.4688,401.4219 L137.4688,404.1406 Z " fill="#000000"/><text fill="#000000" font-family="sans-serif" font-size="12" lengthAdjust="spacingAndGlyphs" textLength="54" x="148.5" y="402.6543">Rn1_CvM</text><line style="stroke:#A80036;stroke-width:1.5;" x1="120.5" x2="204.5" y1="414.5" y2="414.5"/><line style="stroke:#A80036;stroke-width:1.5;" x1="120.5" x2="204.5" y1="422.5" y2="422.5"/><!--MD5=[4c11c6d7cb9e1d360f309920912980bf]
class GOF_model_simulator--><rect codeLine="6" fill="#FEFECE" filter="url(#fmijfy63wn7vx)" height="60.8047" id="GOF_model_simulator" style="stroke:#A80036;stroke-width:1.5;" width="165" x="728" y="376"/><ellipse cx="743" cy="392" fill="#B4A7E5" rx="11" ry="11" style="stroke:#A80036;stroke-width:1.0;"/><path d="M738.9219,387.7656 L738.9219,385.6094 L746.3125,385.6094 L746.3125,387.7656 L743.8438,387.7656 L743.8438,395.8438 L746.3125,395.8438 L746.3125,398 L738.9219,398 L738.9219,395.8438 L741.3906,395.8438 L741.3906,387.7656 L738.9219,387.7656 Z " fill="#000000"/><text fill="#000000" font-family="sans-serif" font-size="12" font-style="italic" lengthAdjust="spacingAndGlyphs" textLength="133" x="757" y="396.1543">GOF_model_simulator</text><line style="stroke:#A80036;stroke-width:1.5;" x1="729" x2="892" y1="408" y2="408"/><line style="stroke:#A80036;stroke-width:1.5;" x1="729" x2="892" y1="416" y2="416"/><ellipse cx="739" cy="427" fill="#84BE84" rx="3" ry="3" style="stroke:#038048;stroke-width:1.0;"/><text fill="#000000" font-family="sans-serif" font-size="11" font-style="italic" lengthAdjust="spacingAndGlyphs" textLength="109" x="748" y="430.2104">resample_y(model)</text><!--MD5=[591a6e717bea09e0a219c3a0736ce799]
class GOF_lm_sim_param--><rect fill="#FEFECE" filter="url(#fmijfy63wn7vx)" height="48" id="GOF_lm_sim_param" style="stroke:#A80036;stroke-width:1.5;" width="150" x="550.5" y="497"/><ellipse cx="565.5" cy="513" fill="#ADD1B2" rx="11" ry="11" style="stroke:#A80036;stroke-width:1.0;"/><path d="M568.4688,518.6406 Q567.8906,518.9375 567.25,519.0781 Q566.6094,519.2344 565.9063,519.2344 Q563.4063,519.2344 562.0781,517.5938 Q560.7656,515.9375 560.7656,512.8125 Q560.7656,509.6875 562.0781,508.0313 Q563.4063,506.375 565.9063,506.375 Q566.6094,506.375 567.25,506.5313 Q567.9063,506.6875 568.4688,506.9844 L568.4688,509.7031 Q567.8438,509.125 567.25,508.8594 Q566.6563,508.5781 566.0313,508.5781 Q564.6875,508.5781 564,509.6563 Q563.3125,510.7188 563.3125,512.8125 Q563.3125,514.9063 564,515.9844 Q564.6875,517.0469 566.0313,517.0469 Q566.6563,517.0469 567.25,516.7813 Q567.8438,516.5 568.4688,515.9219 L568.4688,518.6406 Z " fill="#000000"/><text fill="#000000" font-family="sans-serif" font-size="12" lengthAdjust="spacingAndGlyphs" textLength="118" x="579.5" y="517.1543">GOF_lm_sim_param</text><line style="stroke:#A80036;stroke-width:1.5;" x1="551.5" x2="699.5" y1="529" y2="529"/><line style="stroke:#A80036;stroke-width:1.5;" x1="551.5" x2="699.5" y1="537" y2="537"/><!--MD5=[534a984c02d935dd3575059cfa98d901]
class GOF_sim_wild_rademacher--><rect fill="#FEFECE" filter="url(#fmijfy63wn7vx)" height="48" id="GOF_sim_wild_rademacher" style="stroke:#A80036;stroke-width:1.5;" width="195" x="243" y="497"/><ellipse cx="258" cy="513" fill="#ADD1B2" rx="11" ry="11" style="stroke:#A80036;stroke-width:1.0;"/><path d="M260.9688,518.6406 Q260.3906,518.9375 259.75,519.0781 Q259.1094,519.2344 258.4063,519.2344 Q255.9063,519.2344 254.5781,517.5938 Q253.2656,515.9375 253.2656,512.8125 Q253.2656,509.6875 254.5781,508.0313 Q255.9063,506.375 258.4063,506.375 Q259.1094,506.375 259.75,506.5313 Q260.4063,506.6875 260.9688,506.9844 L260.9688,509.7031 Q260.3438,509.125 259.75,508.8594 Q259.1563,508.5781 258.5313,508.5781 Q257.1875,508.5781 256.5,509.6563 Q255.8125,510.7188 255.8125,512.8125 Q255.8125,514.9063 256.5,515.9844 Q257.1875,517.0469 258.5313,517.0469 Q259.1563,517.0469 259.75,516.7813 Q260.3438,516.5 260.9688,515.9219 L260.9688,518.6406 Z " fill="#000000"/><text fill="#000000" font-family="sans-serif" font-size="12" lengthAdjust="spacingAndGlyphs" textLength="163" x="272" y="517.1543">GOF_sim_wild_rademacher</text><line style="stroke:#A80036;stroke-width:1.5;" x1="244" x2="437" y1="529" y2="529"/><line style="stroke:#A80036;stroke-width:1.5;" x1="244" x2="437" y1="537" y2="537"/><!--MD5=[e9e176703900473475b4d527d99e6beb]
class GOF_glm_sim_param--><rect fill="#FEFECE" filter="url(#fmijfy63wn7vx)" height="48" id="GOF_glm_sim_param" style="stroke:#A80036;stroke-width:1.5;" width="158" x="735.5" y="497"/><ellipse cx="750.5" cy="513" fill="#ADD1B2" rx="11" ry="11" style="stroke:#A80036;stroke-width:1.0;"/><path d="M753.4688,518.6406 Q752.8906,518.9375 752.25,519.0781 Q751.6094,519.2344 750.9063,519.2344 Q748.4063,519.2344 747.0781,517.5938 Q745.7656,515.9375 745.7656,512.8125 Q745.7656,509.6875 747.0781,508.0313 Q748.4063,506.375 750.9063,506.375 Q751.6094,506.375 752.25,506.5313 Q752.9063,506.6875 753.4688,506.9844 L753.4688,509.7031 Q752.8438,509.125 752.25,508.8594 Q751.6563,508.5781 751.0313,508.5781 Q749.6875,508.5781 749,509.6563 Q748.3125,510.7188 748.3125,512.8125 Q748.3125,514.9063 749,515.9844 Q749.6875,517.0469 751.0313,517.0469 Q751.6563,517.0469 752.25,516.7813 Q752.8438,516.5 753.4688,515.9219 L753.4688,518.6406 Z " fill="#000000"/><text fill="#000000" font-family="sans-serif" font-size="12" lengthAdjust="spacingAndGlyphs" textLength="126" x="764.5" y="517.1543">GOF_glm_sim_param</text><line style="stroke:#A80036;stroke-width:1.5;" x1="736.5" x2="892.5" y1="529" y2="529"/><line style="stroke:#A80036;stroke-width:1.5;" x1="736.5" x2="892.5" y1="537" y2="537"/><!--MD5=[a35711cccd7f9c830393ca3250913c01]
class GOF_model_trainer--><rect codeLine="12" fill="#FEFECE" filter="url(#fmijfy63wn7vx)" height="60.8047" id="GOF_model_trainer" style="stroke:#A80036;stroke-width:1.5;" width="149" x="928" y="376"/><ellipse cx="943" cy="392" fill="#B4A7E5" rx="11" ry="11" style="stroke:#A80036;stroke-width:1.0;"/><path d="M938.9219,387.7656 L938.9219,385.6094 L946.3125,385.6094 L946.3125,387.7656 L943.8438,387.7656 L943.8438,395.8438 L946.3125,395.8438 L946.3125,398 L938.9219,398 L938.9219,395.8438 L941.3906,395.8438 L941.3906,387.7656 L938.9219,387.7656 Z " fill="#000000"/><text fill="#000000" font-family="sans-serif" font-size="12" font-style="italic" lengthAdjust="spacingAndGlyphs" textLength="117" x="957" y="396.1543">GOF_model_trainer</text><line style="stroke:#A80036;stroke-width:1.5;" x1="929" x2="1076" y1="408" y2="408"/><line style="stroke:#A80036;stroke-width:1.5;" x1="929" x2="1076" y1="416" y2="416"/><ellipse cx="939" cy="427" fill="#84BE84" rx="3" ry="3" style="stroke:#038048;stroke-width:1.0;"/><text fill="#000000" font-family="sans-serif" font-size="11" font-style="italic" lengthAdjust="spacingAndGlyphs" textLength="99" x="948" y="430.2104">refit(model, data)</text><!--MD5=[898d72944be3d3152d7ed199c5d76c23]
class GOF_lm_trainer--><rect fill="#FEFECE" filter="url(#fmijfy63wn7vx)" height="48" id="GOF_lm_trainer" style="stroke:#A80036;stroke-width:1.5;" width="125" x="936" y="497"/><ellipse cx="951" cy="513" fill="#ADD1B2" rx="11" ry="11" style="stroke:#A80036;stroke-width:1.0;"/><path d="M953.9688,518.6406 Q953.3906,518.9375 952.75,519.0781 Q952.1094,519.2344 951.4063,519.2344 Q948.9063,519.2344 947.5781,517.5938 Q946.2656,515.9375 946.2656,512.8125 Q946.2656,509.6875 947.5781,508.0313 Q948.9063,506.375 951.4063,506.375 Q952.1094,506.375 952.75,506.5313 Q953.4063,506.6875 953.9688,506.9844 L953.9688,509.7031 Q953.3438,509.125 952.75,508.8594 Q952.1563,508.5781 951.5313,508.5781 Q950.1875,508.5781 949.5,509.6563 Q948.8125,510.7188 948.8125,512.8125 Q948.8125,514.9063 949.5,515.9844 Q950.1875,517.0469 951.5313,517.0469 Q952.1563,517.0469 952.75,516.7813 Q953.3438,516.5 953.9688,515.9219 L953.9688,518.6406 Z " fill="#000000"/><text fill="#000000" font-family="sans-serif" font-size="12" lengthAdjust="spacingAndGlyphs" textLength="93" x="965" y="517.1543">GOF_lm_trainer</text><line style="stroke:#A80036;stroke-width:1.5;" x1="937" x2="1060" y1="529" y2="529"/><line style="stroke:#A80036;stroke-width:1.5;" x1="937" x2="1060" y1="537" y2="537"/><!--MD5=[c30ee7d687ffc9c1a919aea6894388f3]
class GOF_glm_trainer--><rect fill="#FEFECE" filter="url(#fmijfy63wn7vx)" height="48" id="GOF_glm_trainer" style="stroke:#A80036;stroke-width:1.5;" width="133" x="1096" y="497"/><ellipse cx="1111" cy="513" fill="#ADD1B2" rx="11" ry="11" style="stroke:#A80036;stroke-width:1.0;"/><path d="M1113.9688,518.6406 Q1113.3906,518.9375 1112.75,519.0781 Q1112.1094,519.2344 1111.4063,519.2344 Q1108.9063,519.2344 1107.5781,517.5938 Q1106.2656,515.9375 1106.2656,512.8125 Q1106.2656,509.6875 1107.5781,508.0313 Q1108.9063,506.375 1111.4063,506.375 Q1112.1094,506.375 1112.75,506.5313 Q1113.4063,506.6875 1113.9688,506.9844 L1113.9688,509.7031 Q1113.3438,509.125 1112.75,508.8594 Q1112.1563,508.5781 1111.5313,508.5781 Q1110.1875,508.5781 1109.5,509.6563 Q1108.8125,510.7188 1108.8125,512.8125 Q1108.8125,514.9063 1109.5,515.9844 Q1110.1875,517.0469 1111.5313,517.0469 Q1112.1563,517.0469 1112.75,516.7813 Q1113.3438,516.5 1113.9688,515.9219 L1113.9688,518.6406 Z " fill="#000000"/><text fill="#000000" font-family="sans-serif" font-size="12" lengthAdjust="spacingAndGlyphs" textLength="101" x="1125" y="517.1543">GOF_glm_trainer</text><line style="stroke:#A80036;stroke-width:1.5;" x1="1097" x2="1228" y1="529" y2="529"/><line style="stroke:#A80036;stroke-width:1.5;" x1="1097" x2="1228" y1="537" y2="537"/><!--MD5=[f6a87f2d6695f4082a711a0b914fdfe8]
class GOF_model_info_extractor--><rect codeLine="17" fill="#FEFECE" filter="url(#fmijfy63wn7vx)" height="86.4141" id="GOF_model_info_extractor" style="stroke:#A80036;stroke-width:1.5;" width="221" x="286" y="230"/><ellipse cx="313.6" cy="246" fill="#B4A7E5" rx="11" ry="11" style="stroke:#A80036;stroke-width:1.0;"/><path d="M309.5219,241.7656 L309.5219,239.6094 L316.9125,239.6094 L316.9125,241.7656 L314.4438,241.7656 L314.4438,249.8438 L316.9125,249.8438 L316.9125,252 L309.5219,252 L309.5219,249.8438 L311.9906,249.8438 L311.9906,241.7656 L309.5219,241.7656 Z " fill="#000000"/><text fill="#000000" font-family="sans-serif" font-size="12" font-style="italic" lengthAdjust="spacingAndGlyphs" textLength="161" x="330.4" y="250.1543">GOF_model_info_extractor</text><line style="stroke:#A80036;stroke-width:1.5;" x1="287" x2="506" y1="262" y2="262"/><line style="stroke:#A80036;stroke-width:1.5;" x1="287" x2="506" y1="270" y2="270"/><ellipse cx="297" cy="281" fill="#84BE84" rx="3" ry="3" style="stroke:#038048;stroke-width:1.0;"/><text fill="#000000" font-family="sans-serif" font-size="11" font-style="italic" lengthAdjust="spacingAndGlyphs" textLength="117" x="306" y="284.2104">double[] yhat(model)</text><ellipse cx="297" cy="293.8047" fill="#84BE84" rx="3" ry="3" style="stroke:#038048;stroke-width:1.0;"/><text fill="#000000" font-family="sans-serif" font-size="11" font-style="italic" lengthAdjust="spacingAndGlyphs" textLength="170" x="306" y="297.0151">double[] y_minus_yhat(model)</text><ellipse cx="297" cy="306.6094" fill="#84BE84" rx="3" ry="3" style="stroke:#038048;stroke-width:1.0;"/><text fill="#000000" font-family="sans-serif" font-size="11" font-style="italic" lengthAdjust="spacingAndGlyphs" textLength="195" x="306" y="309.8198">double[] beta_x_covariates(model)</text><!--MD5=[a6c68d743468a84e4598206f5cc326be]
class GOF_lm_info_extractor--><rect fill="#FEFECE" filter="url(#fmijfy63wn7vx)" height="48" id="GOF_lm_info_extractor" style="stroke:#A80036;stroke-width:1.5;" width="169" x="312" y="382.5"/><ellipse cx="327" cy="398.5" fill="#ADD1B2" rx="11" ry="11" style="stroke:#A80036;stroke-width:1.0;"/><path d="M329.9688,404.1406 Q329.3906,404.4375 328.75,404.5781 Q328.1094,404.7344 327.4063,404.7344 Q324.9063,404.7344 323.5781,403.0938 Q322.2656,401.4375 322.2656,398.3125 Q322.2656,395.1875 323.5781,393.5313 Q324.9063,391.875 327.4063,391.875 Q328.1094,391.875 328.75,392.0313 Q329.4063,392.1875 329.9688,392.4844 L329.9688,395.2031 Q329.3438,394.625 328.75,394.3594 Q328.1563,394.0781 327.5313,394.0781 Q326.1875,394.0781 325.5,395.1563 Q324.8125,396.2188 324.8125,398.3125 Q324.8125,400.4063 325.5,401.4844 Q326.1875,402.5469 327.5313,402.5469 Q328.1563,402.5469 328.75,402.2813 Q329.3438,402 329.9688,401.4219 L329.9688,404.1406 Z " fill="#000000"/><text fill="#000000" font-family="sans-serif" font-size="12" lengthAdjust="spacingAndGlyphs" textLength="137" x="341" y="402.6543">GOF_lm_info_extractor</text><line style="stroke:#A80036;stroke-width:1.5;" x1="313" x2="480" y1="414.5" y2="414.5"/><line style="stroke:#A80036;stroke-width:1.5;" x1="313" x2="480" y1="422.5" y2="422.5"/><!--MD5=[a911ee8fe5278609a9687bf6fe994961]
class GOF_glm_info_extractor--><rect fill="#FEFECE" filter="url(#fmijfy63wn7vx)" height="48" id="GOF_glm_info_extractor" style="stroke:#A80036;stroke-width:1.5;" width="177" x="516" y="382.5"/><ellipse cx="531" cy="398.5" fill="#ADD1B2" rx="11" ry="11" style="stroke:#A80036;stroke-width:1.0;"/><path d="M533.9688,404.1406 Q533.3906,404.4375 532.75,404.5781 Q532.1094,404.7344 531.4063,404.7344 Q528.9063,404.7344 527.5781,403.0938 Q526.2656,401.4375 526.2656,398.3125 Q526.2656,395.1875 527.5781,393.5313 Q528.9063,391.875 531.4063,391.875 Q532.1094,391.875 532.75,392.0313 Q533.4063,392.1875 533.9688,392.4844 L533.9688,395.2031 Q533.3438,394.625 532.75,394.3594 Q532.1563,394.0781 531.5313,394.0781 Q530.1875,394.0781 529.5,395.1563 Q528.8125,396.2188 528.8125,398.3125 Q528.8125,400.4063 529.5,401.4844 Q530.1875,402.5469 531.5313,402.5469 Q532.1563,402.5469 532.75,402.2813 Q533.3438,402 533.9688,401.4219 L533.9688,404.1406 Z " fill="#000000"/><text fill="#000000" font-family="sans-serif" font-size="12" lengthAdjust="spacingAndGlyphs" textLength="145" x="545" y="402.6543">GOF_glm_info_extractor</text><line style="stroke:#A80036;stroke-width:1.5;" x1="517" x2="692" y1="414.5" y2="414.5"/><line style="stroke:#A80036;stroke-width:1.5;" x1="517" x2="692" y1="422.5" y2="422.5"/><!--MD5=[060df7291ef12794aa7a346b3c52a44e]
class GOF_model_resample--><rect codeLine="25" fill="#FEFECE" filter="url(#fmijfy63wn7vx)" height="86.4141" id="GOF_model_resample" style="stroke:#A80036;stroke-width:1.5;" width="165" x="728" y="230"/><ellipse cx="743" cy="246" fill="#A9DCDF" rx="11" ry="11" style="stroke:#A80036;stroke-width:1.0;"/><path d="M743.1094,241.3438 L741.9531,246.4219 L744.2813,246.4219 L743.1094,241.3438 Z M741.625,239.1094 L744.6094,239.1094 L747.9688,251.5 L745.5156,251.5 L744.75,248.4375 L741.4688,248.4375 L740.7188,251.5 L738.2813,251.5 L741.625,239.1094 Z " fill="#000000"/><text fill="#000000" font-family="sans-serif" font-size="12" font-style="italic" lengthAdjust="spacingAndGlyphs" textLength="133" x="757" y="250.1543">GOF_model_resample</text><line style="stroke:#A80036;stroke-width:1.5;" x1="729" x2="892" y1="262" y2="262"/><rect fill="none" height="6" style="stroke:#C82930;stroke-width:1.0;" width="6" x="736" y="270"/><text fill="#000000" font-family="sans-serif" font-size="11" lengthAdjust="spacingAndGlyphs" textLength="125" x="748" y="276.2104">GOF_model_simulator</text><rect fill="none" height="6" style="stroke:#C82930;stroke-width:1.0;" width="6" x="736" y="282.8047"/><text fill="#000000" font-family="sans-serif" font-size="11" lengthAdjust="spacingAndGlyphs" textLength="109" x="748" y="289.0151">GOF_model_trainer</text><line style="stroke:#A80036;stroke-width:1.5;" x1="729" x2="892" y1="295.6094" y2="295.6094"/><ellipse cx="739" cy="306.6094" fill="#84BE84" rx="3" ry="3" style="stroke:#038048;stroke-width:1.0;"/><text fill="#000000" font-family="sans-serif" font-size="11" lengthAdjust="spacingAndGlyphs" textLength="62" x="748" y="309.8198">resample()</text><!--MD5=[643488597e997d1218b29e7dc00ef1a0]
class GOF_model_test--><rect codeLine="32" fill="#FEFECE" filter="url(#fmijfy63wn7vx)" height="163.2422" id="GOF_model_test" style="stroke:#A80036;stroke-width:1.5;" width="329" x="232" y="7"/><ellipse cx="342.25" cy="23" fill="#ADD1B2" rx="11" ry="11" style="stroke:#A80036;stroke-width:1.0;"/><path d="M345.2188,28.6406 Q344.6406,28.9375 344,29.0781 Q343.3594,29.2344 342.6563,29.2344 Q340.1563,29.2344 338.8281,27.5938 Q337.5156,25.9375 337.5156,22.8125 Q337.5156,19.6875 338.8281,18.0313 Q340.1563,16.375 342.6563,16.375 Q343.3594,16.375 344,16.5313 Q344.6563,16.6875 345.2188,16.9844 L345.2188,19.7031 Q344.5938,19.125 344,18.8594 Q343.4063,18.5781 342.7813,18.5781 Q341.4375,18.5781 340.75,19.6563 Q340.0625,20.7188 340.0625,22.8125 Q340.0625,24.9063 340.75,25.9844 Q341.4375,27.0469 342.7813,27.0469 Q343.4063,27.0469 344,26.7813 Q344.5938,26.5 345.2188,25.9219 L345.2188,28.6406 Z " fill="#000000"/><text fill="#000000" font-family="sans-serif" font-size="12" lengthAdjust="spacingAndGlyphs" textLength="100" x="362.75" y="27.1543">GOF_model_test</text><line style="stroke:#A80036;stroke-width:1.5;" x1="233" x2="560" y1="39" y2="39"/><rect fill="none" height="6" style="stroke:#C82930;stroke-width:1.0;" width="6" x="240" y="47"/><text fill="#000000" font-family="sans-serif" font-size="11" lengthAdjust="spacingAndGlyphs" textLength="155" x="252" y="53.2104">GOF_model_info_exctractor</text><rect fill="none" height="6" style="stroke:#C82930;stroke-width:1.0;" width="6" x="240" y="59.8047"/><text fill="#000000" font-family="sans-serif" font-size="11" lengthAdjust="spacingAndGlyphs" textLength="206" x="252" y="66.0151">GOF_model_resample_skeleton RSS</text><rect fill="none" height="6" style="stroke:#C82930;stroke-width:1.0;" width="6" x="240" y="72.6094"/><text fill="#000000" font-family="sans-serif" font-size="11" lengthAdjust="spacingAndGlyphs" textLength="125" x="252" y="78.8198">Rn1_statistic Rn1_stat</text><rect fill="none" height="6" style="stroke:#C82930;stroke-width:1.0;" width="6" x="240" y="85.4141"/><text fill="#000000" font-family="sans-serif" font-size="11" lengthAdjust="spacingAndGlyphs" textLength="96" x="252" y="91.6245">double[] Rn1_org</text><rect fill="none" height="6" style="stroke:#C82930;stroke-width:1.0;" width="6" x="240" y="98.2188"/><text fill="#000000" font-family="sans-serif" font-size="11" lengthAdjust="spacingAndGlyphs" textLength="102" x="252" y="104.4292">double[] Rn1_boot</text><line style="stroke:#A80036;stroke-width:1.5;" x1="233" x2="560" y1="111.0234" y2="111.0234"/><rect fill="#F24D5C" height="6" style="stroke:#C82930;stroke-width:1.0;" width="6" x="240" y="119.0234"/><text fill="#000000" font-family="sans-serif" font-size="11" lengthAdjust="spacingAndGlyphs" textLength="303" x="252" y="125.2339">double[] Rn1(y_minus_yhat, order_beta_x_covariates)</text><ellipse cx="243" cy="134.8281" fill="#84BE84" rx="3" ry="3" style="stroke:#038048;stroke-width:1.0;"/><text fill="#000000" font-family="sans-serif" font-size="11" lengthAdjust="spacingAndGlyphs" textLength="78" x="252" y="138.0386">get_Rn1_org()</text><ellipse cx="243" cy="147.6328" fill="#84BE84" rx="3" ry="3" style="stroke:#038048;stroke-width:1.0;"/><text fill="#000000" font-family="sans-serif" font-size="11" lengthAdjust="spacingAndGlyphs" textLength="84" x="252" y="150.8433">get_Rn1_boot()</text><ellipse cx="243" cy="160.4375" fill="#84BE84" rx="3" ry="3" style="stroke:#038048;stroke-width:1.0;"/><text fill="#000000" font-family="sans-serif" font-size="11" lengthAdjust="spacingAndGlyphs" textLength="69" x="252" y="163.6479">get_pvalue()</text><!--MD5=[6bffb7db188ce1bcd5d6fac161504234]
reverse link Rn1_statistic to Rn1_KS--><path codeLine="4" d="M122.77,318.66 C103.79,339.99 81.86,364.63 66.22,382.21 " fill="none" id="Rn1_statistic-backto-Rn1_KS" style="stroke:#A80036;stroke-width:1.0;"/><polygon fill="none" points="117.72,313.8,136.24,303.51,128.18,323.11,117.72,313.8" style="stroke:#A80036;stroke-width:1.0;"/><!--MD5=[899a6a078e3b68600229dbfeb154cfe5]
reverse link Rn1_statistic to Rn1_CvM--><path codeLine="5" d="M162.5,323.71 C162.5,343.79 162.5,366 162.5,382.21 " fill="none" id="Rn1_statistic-backto-Rn1_CvM" style="stroke:#A80036;stroke-width:1.0;"/><polygon fill="none" points="155.5,323.51,162.5,303.51,169.5,323.51,155.5,323.51" style="stroke:#A80036;stroke-width:1.0;"/><!--MD5=[10ce979e2d5b01e47f84753d2b8b5b16]
reverse link GOF_model_simulator to GOF_lm_sim_param--><path codeLine="9" d="M744.63,447.56 C717.45,464.09 686.92,482.65 663.57,496.85 " fill="none" id="GOF_model_simulator-backto-GOF_lm_sim_param" style="stroke:#A80036;stroke-width:1.0;"/><polygon fill="none" points="741.17,441.47,761.89,437.06,748.44,453.43,741.17,441.47" style="stroke:#A80036;stroke-width:1.0;"/><!--MD5=[f749eb7af38872d125ee64274989f313]
reverse link GOF_model_simulator to GOF_sim_wild_rademacher--><path codeLine="10" d="M708.47,437.35 C606.27,463.55 508.68,485.03 438.3,499.91 " fill="none" id="GOF_model_simulator-backto-GOF_sim_wild_rademacher" style="stroke:#A80036;stroke-width:1.0;"/><polygon fill="none" points="706.83,430.55,727.95,432.32,710.34,444.1,706.83,430.55" style="stroke:#A80036;stroke-width:1.0;"/><!--MD5=[64fd6074f6d8bbf03a3c687cc46fbf1d]
reverse link GOF_model_simulator to GOF_glm_sim_param--><path codeLine="11" d="M812.26,457.11 C812.75,470.88 813.26,485.18 813.67,496.67 " fill="none" id="GOF_model_simulator-backto-GOF_glm_sim_param" style="stroke:#A80036;stroke-width:1.0;"/><polygon fill="none" points="805.27,457.29,811.55,437.06,819.26,456.8,805.27,457.29" style="stroke:#A80036;stroke-width:1.0;"/><!--MD5=[e837d437a59d41c948c9a43d1455c8e2]
reverse link GOF_model_trainer to GOF_lm_trainer--><path codeLine="15" d="M1000.74,457.11 C1000.25,470.88 999.74,485.18 999.33,496.67 " fill="none" id="GOF_model_trainer-backto-GOF_lm_trainer" style="stroke:#A80036;stroke-width:1.0;"/><polygon fill="none" points="993.74,456.8,1001.45,437.06,1007.73,457.29,993.74,456.8" style="stroke:#A80036;stroke-width:1.0;"/><!--MD5=[5f788e9c635e652c699cac38994d3e3b]
reverse link GOF_model_trainer to GOF_glm_trainer--><path codeLine="16" d="M1061.16,448.74 C1084.23,464.97 1109.86,482.99 1129.58,496.85 " fill="none" id="GOF_model_trainer-backto-GOF_glm_trainer" style="stroke:#A80036;stroke-width:1.0;"/><polygon fill="none" points="1056.87,454.29,1044.54,437.06,1064.92,442.84,1056.87,454.29" style="stroke:#A80036;stroke-width:1.0;"/><!--MD5=[5600faca7ee220aca6cf443fbc4263d9]
reverse link GOF_model_info_extractor to GOF_lm_info_extractor--><path codeLine="22" d="M396.5,336.34 C396.5,352.78 396.5,369.51 396.5,382.4 " fill="none" id="GOF_model_info_extractor-backto-GOF_lm_info_extractor" style="stroke:#A80036;stroke-width:1.0;"/><polygon fill="none" points="389.5,336.33,396.5,316.33,403.5,336.33,389.5,336.33" style="stroke:#A80036;stroke-width:1.0;"/><!--MD5=[3cbd631b6334d58c9aae363d9aebc00b]
reverse link GOF_model_info_extractor to GOF_glm_info_extractor--><path codeLine="23" d="M480.26,326.95 C510.72,346.21 543.59,366.99 567.86,382.34 " fill="none" id="GOF_model_info_extractor-backto-GOF_glm_info_extractor" style="stroke:#A80036;stroke-width:1.0;"/><polygon fill="none" points="476.34,332.75,463.17,316.15,483.82,320.92,476.34,332.75" style="stroke:#A80036;stroke-width:1.0;"/><!--MD5=[34b9422d9f6a638121e71667943a5864]
reverse link GOF_model_info_extractor to GOF_sim_wild_rademacher--><path codeLine="24" d="M329.67,325.44 C315.39,340.08 302.28,357.21 294.5,376 C277.28,417.58 303.77,468.08 323.14,496.88 " fill="none" id="GOF_model_info_extractor-backto-GOF_sim_wild_rademacher" style="stroke:#A80036;stroke-width:1.0;"/><polygon fill="#A80036" points="339.17,316.19,332.0809,317.5107,330.5734,324.5625,337.6625,323.2418,339.17,316.19" style="stroke:#A80036;stroke-width:1.0;"/><!--MD5=[5f077592272006905200301bcbc2ad42]
reverse link GOF_model_resample to GOF_model_simulator--><path codeLine="30" d="M810.5,329.41 C810.5,345.31 810.5,362.03 810.5,375.74 " fill="none" id="GOF_model_resample-backto-GOF_model_simulator" style="stroke:#A80036;stroke-width:1.0;"/><polygon fill="#A80036" points="810.5,316.33,806.5,322.33,810.5,328.33,814.5,322.33,810.5,316.33" style="stroke:#A80036;stroke-width:1.0;"/><!--MD5=[7b35f3e3d92944d36cf5ee230c1aca5a]
reverse link GOF_model_resample to GOF_model_trainer--><path codeLine="31" d="M882.89,323.58 C908.6,341.19 936.72,360.45 959.23,375.86 " fill="none" id="GOF_model_resample-backto-GOF_model_trainer" style="stroke:#A80036;stroke-width:1.0;"/><polygon fill="#A80036" points="872.04,316.15,874.7322,322.8397,881.9427,322.9276,879.2506,316.2379,872.04,316.15" style="stroke:#A80036;stroke-width:1.0;"/><!--MD5=[8bb073ebf150e45460be580c11ed95d6]
reverse link GOF_model_test to GOF_model_info_extractor--><path codeLine="43" d="M396.5,183.19 C396.5,199.56 396.5,215.82 396.5,229.87 " fill="none" id="GOF_model_test-backto-GOF_model_info_extractor" style="stroke:#A80036;stroke-width:1.0;"/><polygon fill="#A80036" points="396.5,170.08,392.5,176.08,396.5,182.08,400.5,176.08,396.5,170.08" style="stroke:#A80036;stroke-width:1.0;"/><!--MD5=[16ddf892a17a22c00730b252afc64c17]
reverse link GOF_model_test to GOF_model_resample--><path codeLine="44" d="M573.17,167.38 C626.95,191.09 683.53,216.03 727.95,235.61 " fill="none" id="GOF_model_test-backto-GOF_model_resample" style="stroke:#A80036;stroke-width:1.0;"/><polygon fill="#A80036" points="561.02,162.02,564.898,168.0996,572.0014,166.8582,568.1234,160.7786,561.02,162.02" style="stroke:#A80036;stroke-width:1.0;"/><!--MD5=[6314d1d95ffad91a04b5312f391f2aa1]
reverse link GOF_model_test to Rn1_statistic--><path codeLine="45" d="M282.69,178.26 C252.94,201.46 222.93,224.87 200.33,242.49 " fill="none" id="GOF_model_test-backto-Rn1_statistic" style="stroke:#A80036;stroke-width:1.0;"/><polygon fill="#A80036" points="293.18,170.08,285.9892,170.6208,283.7227,177.4664,290.9135,176.9257,293.18,170.08" style="stroke:#A80036;stroke-width:1.0;"/><!--MD5=[bf4ccf1a3f92bde398b1451de44d0380]
@startuml
interface Rn1_statistic {
    + {abstract} double calc_statistic(Rn1)
}
Rn1_statistic <|- - Rn1_KS
Rn1_statistic <|- - Rn1_CvM
interface GOF_model_simulator {
    + {abstract} resample_y(model)
}
GOF_model_simulator <|- - GOF_lm_sim_param
GOF_model_simulator <|- - GOF_sim_wild_rademacher
GOF_model_simulator <|- - GOF_glm_sim_param
interface GOF_model_trainer {
    + {abstract} refit(model, data)
}
GOF_model_trainer <|- - GOF_lm_trainer
GOF_model_trainer <|- - GOF_glm_trainer
interface GOF_model_info_extractor {
    + {abstract} double[] yhat(model)
    + {abstract} double[] y_minus_yhat(model)
    + {abstract} double[] beta_x_covariates(model)
}
GOF_model_info_extractor <|- - GOF_lm_info_extractor
GOF_model_info_extractor <|- - GOF_glm_info_extractor
GOF_model_info_extractor *- - GOF_sim_wild_rademacher
abstract class GOF_model_resample {
    - GOF_model_simulator
    - GOF_model_trainer
    + resample()
}
GOF_model_resample *- - GOF_model_simulator
GOF_model_resample *- - GOF_model_trainer
class GOF_model_test {
    - GOF_model_info_exctractor
    - GOF_model_resample_skeleton RSS
    - Rn1_statistic Rn1_stat
    - double[] Rn1_org
    - double[] Rn1_boot
    - double[] Rn1(y_minus_yhat, order_beta_x_covariates)
    + get_Rn1_org()
    + get_Rn1_boot()
    + get_pvalue()
}
GOF_model_test *- - GOF_model_info_extractor
GOF_model_test *- - GOF_model_resample
GOF_model_test *- - Rn1_statistic
@enduml

PlantUML version 1.2020.26(Mon Dec 21 17:45:07 UTC 2020)
(GPL source distribution)
Java Runtime: OpenJDK Runtime Environment
JVM: OpenJDK 64-Bit Server VM
Default Encoding: UTF-8
Language: en
Country: US
--></g></svg>