<?xml version="1.0" encoding="UTF-8" standalone="no"?><svg xmlns="http://www.w3.org/2000/svg" xmlns:xlink="http://www.w3.org/1999/xlink" contentScriptType="application/ecmascript" contentStyleType="text/css" height="559px" preserveAspectRatio="none" style="width:1279px;height:559px;" version="1.1" viewBox="0 0 1279 559" width="1279px" zoomAndPan="magnify"><defs><filter height="300%" id="fs973o0w43gk2" width="300%" x="-1" y="-1"><feGaussianBlur result="blurOut" stdDeviation="2.0"/><feColorMatrix in="blurOut" result="blurOut2" type="matrix" values="0 0 0 0 0 0 0 0 0 0 0 0 0 0 0 0 0 0 .4 0"/><feOffset dx="4.0" dy="4.0" in="blurOut2" result="blurOut3"/><feBlend in="SourceGraphic" in2="blurOut3" mode="normal"/></filter></defs><g><!--MD5=[a9e0737ab0eb25b1ac06880e04977c5b]
class Rn1_statistic--><rect codeLine="1" fill="#FEFECE" filter="url(#fs973o0w43gk2)" height="60.8047" id="Rn1_statistic" style="stroke:#A80036;stroke-width:1.5;" width="170" x="77.5" y="242.5"/><ellipse cx="118.6" cy="258.5" fill="#B4A7E5" rx="11" ry="11" style="stroke:#A80036;stroke-width:1.0;"/><path d="M114.5219,254.2656 L114.5219,252.1094 L121.9125,252.1094 L121.9125,254.2656 L119.4438,254.2656 L119.4438,262.3438 L121.9125,262.3438 L121.9125,264.5 L114.5219,264.5 L114.5219,262.3438 L116.9906,262.3438 L116.9906,254.2656 L114.5219,254.2656 Z " fill="#000000"/><text fill="#000000" font-family="sans-serif" font-size="12" font-style="italic" lengthAdjust="spacingAndGlyphs" textLength="80" x="138.4" y="262.6543">Rn1_statistic</text><line style="stroke:#A80036;stroke-width:1.5;" x1="78.5" x2="246.5" y1="274.5" y2="274.5"/><line style="stroke:#A80036;stroke-width:1.5;" x1="78.5" x2="246.5" y1="282.5" y2="282.5"/><ellipse cx="88.5" cy="293.5" fill="#84BE84" rx="3" ry="3" style="stroke:#038048;stroke-width:1.0;"/><text fill="#000000" font-family="sans-serif" font-size="11" font-style="italic" lengthAdjust="spacingAndGlyphs" textLength="144" x="97.5" y="296.7104">double calc_statistic(Rn1)</text><!--MD5=[3adf2ff96b150324db2a91864f58513e]
class Rn1_KS--><rect fill="#FEFECE" filter="url(#fs973o0w43gk2)" height="48" id="Rn1_KS" style="stroke:#A80036;stroke-width:1.5;" width="77" x="7" y="382.5"/><ellipse cx="22" cy="398.5" fill="#ADD1B2" rx="11" ry="11" style="stroke:#A80036;stroke-width:1.0;"/><path d="M24.9688,404.1406 Q24.3906,404.4375 23.75,404.5781 Q23.1094,404.7344 22.4063,404.7344 Q19.9063,404.7344 18.5781,403.0938 Q17.2656,401.4375 17.2656,398.3125 Q17.2656,395.1875 18.5781,393.5313 Q19.9063,391.875 22.4063,391.875 Q23.1094,391.875 23.75,392.0313 Q24.4063,392.1875 24.9688,392.4844 L24.9688,395.2031 Q24.3438,394.625 23.75,394.3594 Q23.1563,394.0781 22.5313,394.0781 Q21.1875,394.0781 20.5,395.1563 Q19.8125,396.2188 19.8125,398.3125 Q19.8125,400.4063 20.5,401.4844 Q21.1875,402.5469 22.5313,402.5469 Q23.1563,402.5469 23.75,402.2813 Q24.3438,402 24.9688,401.4219 L24.9688,404.1406 Z " fill="#000000"/><text fill="#000000" font-family="sans-serif" font-size="12" lengthAdjust="spacingAndGlyphs" textLength="45" x="36" y="402.6543">Rn1_KS</text><line style="stroke:#A80036;stroke-width:1.5;" x1="8" x2="83" y1="414.5" y2="414.5"/><line style="stroke:#A80036;stroke-width:1.5;" x1="8" x2="83" y1="422.5" y2="422.5"/><!--MD5=[4de0655f174dcc5b34c53463553c4d0e]
class Rn1_CvM--><rect fill="#FEFECE" filter="url(#fs973o0w43gk2)" height="48" id="Rn1_CvM" style="stroke:#A80036;stroke-width:1.5;" width="86" x="119.5" y="382.5"/><ellipse cx="134.5" cy="398.5" fill="#ADD1B2" rx="11" ry="11" style="stroke:#A80036;stroke-width:1.0;"/><path d="M137.4688,404.1406 Q136.8906,404.4375 136.25,404.5781 Q135.6094,404.7344 134.9063,404.7344 Q132.4063,404.7344 131.0781,403.0938 Q129.7656,401.4375 129.7656,398.3125 Q129.7656,395.1875 131.0781,393.5313 Q132.4063,391.875 134.9063,391.875 Q135.6094,391.875 136.25,392.0313 Q136.9063,392.1875 137.4688,392.4844 L137.4688,395.2031 Q136.8438,394.625 136.25,394.3594 Q135.6563,394.0781 135.0313,394.0781 Q133.6875,394.0781 133,395.1563 Q132.3125,396.2188 132.3125,398.3125 Q132.3125,400.4063 133,401.4844 Q133.6875,402.5469 135.0313,402.5469 Q135.6563,402.5469 136.25,402.2813 Q136.8438,402 137.4688,401.4219 L137.4688,404.1406 Z " fill="#000000"/><text fill="#000000" font-family="sans-serif" font-size="12" lengthAdjust="spacingAndGlyphs" textLength="54" x="148.5" y="402.6543">Rn1_CvM</text><line style="stroke:#A80036;stroke-width:1.5;" x1="120.5" x2="204.5" y1="414.5" y2="414.5"/><line style="stroke:#A80036;stroke-width:1.5;" x1="120.5" x2="204.5" y1="422.5" y2="422.5"/><!--MD5=[4c11c6d7cb9e1d360f309920912980bf]
class GOF_model_simulator--><rect codeLine="6" fill="#FEFECE" filter="url(#fs973o0w43gk2)" height="60.8047" id="GOF_model_simulator" style="stroke:#A80036;stroke-width:1.5;" width="165" x="657" y="376"/><ellipse cx="672" cy="392" fill="#B4A7E5" rx="11" ry="11" style="stroke:#A80036;stroke-width:1.0;"/><path d="M667.9219,387.7656 L667.9219,385.6094 L675.3125,385.6094 L675.3125,387.7656 L672.8438,387.7656 L672.8438,395.8438 L675.3125,395.8438 L675.3125,398 L667.9219,398 L667.9219,395.8438 L670.3906,395.8438 L670.3906,387.7656 L667.9219,387.7656 Z " fill="#000000"/><text fill="#000000" font-family="sans-serif" font-size="12" font-style="italic" lengthAdjust="spacingAndGlyphs" textLength="133" x="686" y="396.1543">GOF_model_simulator</text><line style="stroke:#A80036;stroke-width:1.5;" x1="658" x2="821" y1="408" y2="408"/><line style="stroke:#A80036;stroke-width:1.5;" x1="658" x2="821" y1="416" y2="416"/><ellipse cx="668" cy="427" fill="#84BE84" rx="3" ry="3" style="stroke:#038048;stroke-width:1.0;"/><text fill="#000000" font-family="sans-serif" font-size="11" font-style="italic" lengthAdjust="spacingAndGlyphs" textLength="109" x="677" y="430.2104">resample_y(model)</text><!--MD5=[591a6e717bea09e0a219c3a0736ce799]
class GOF_lm_sim_param--><rect fill="#FEFECE" filter="url(#fs973o0w43gk2)" height="48" id="GOF_lm_sim_param" style="stroke:#A80036;stroke-width:1.5;" width="150" x="343.5" y="497"/><ellipse cx="358.5" cy="513" fill="#ADD1B2" rx="11" ry="11" style="stroke:#A80036;stroke-width:1.0;"/><path d="M361.4688,518.6406 Q360.8906,518.9375 360.25,519.0781 Q359.6094,519.2344 358.9063,519.2344 Q356.4063,519.2344 355.0781,517.5938 Q353.7656,515.9375 353.7656,512.8125 Q353.7656,509.6875 355.0781,508.0313 Q356.4063,506.375 358.9063,506.375 Q359.6094,506.375 360.25,506.5313 Q360.9063,506.6875 361.4688,506.9844 L361.4688,509.7031 Q360.8438,509.125 360.25,508.8594 Q359.6563,508.5781 359.0313,508.5781 Q357.6875,508.5781 357,509.6563 Q356.3125,510.7188 356.3125,512.8125 Q356.3125,514.9063 357,515.9844 Q357.6875,517.0469 359.0313,517.0469 Q359.6563,517.0469 360.25,516.7813 Q360.8438,516.5 361.4688,515.9219 L361.4688,518.6406 Z " fill="#000000"/><text fill="#000000" font-family="sans-serif" font-size="12" lengthAdjust="spacingAndGlyphs" textLength="118" x="372.5" y="517.1543">GOF_lm_sim_param</text><line style="stroke:#A80036;stroke-width:1.5;" x1="344.5" x2="492.5" y1="529" y2="529"/><line style="stroke:#A80036;stroke-width:1.5;" x1="344.5" x2="492.5" y1="537" y2="537"/><!--MD5=[213a03b944bb88465628ede468972a2d]
class GOF_lm_sim_wild_rademacher--><rect fill="#FEFECE" filter="url(#fs973o0w43gk2)" height="48" id="GOF_lm_sim_wild_rademacher" style="stroke:#A80036;stroke-width:1.5;" width="215" x="529" y="497"/><ellipse cx="544" cy="513" fill="#ADD1B2" rx="11" ry="11" style="stroke:#A80036;stroke-width:1.0;"/><path d="M546.9688,518.6406 Q546.3906,518.9375 545.75,519.0781 Q545.1094,519.2344 544.4063,519.2344 Q541.9063,519.2344 540.5781,517.5938 Q539.2656,515.9375 539.2656,512.8125 Q539.2656,509.6875 540.5781,508.0313 Q541.9063,506.375 544.4063,506.375 Q545.1094,506.375 545.75,506.5313 Q546.4063,506.6875 546.9688,506.9844 L546.9688,509.7031 Q546.3438,509.125 545.75,508.8594 Q545.1563,508.5781 544.5313,508.5781 Q543.1875,508.5781 542.5,509.6563 Q541.8125,510.7188 541.8125,512.8125 Q541.8125,514.9063 542.5,515.9844 Q543.1875,517.0469 544.5313,517.0469 Q545.1563,517.0469 545.75,516.7813 Q546.3438,516.5 546.9688,515.9219 L546.9688,518.6406 Z " fill="#000000"/><text fill="#000000" font-family="sans-serif" font-size="12" lengthAdjust="spacingAndGlyphs" textLength="183" x="558" y="517.1543">GOF_lm_sim_wild_rademacher</text><line style="stroke:#A80036;stroke-width:1.5;" x1="530" x2="743" y1="529" y2="529"/><line style="stroke:#A80036;stroke-width:1.5;" x1="530" x2="743" y1="537" y2="537"/><!--MD5=[e9e176703900473475b4d527d99e6beb]
class GOF_glm_sim_param--><rect fill="#FEFECE" filter="url(#fs973o0w43gk2)" height="48" id="GOF_glm_sim_param" style="stroke:#A80036;stroke-width:1.5;" width="158" x="779.5" y="497"/><ellipse cx="794.5" cy="513" fill="#ADD1B2" rx="11" ry="11" style="stroke:#A80036;stroke-width:1.0;"/><path d="M797.4688,518.6406 Q796.8906,518.9375 796.25,519.0781 Q795.6094,519.2344 794.9063,519.2344 Q792.4063,519.2344 791.0781,517.5938 Q789.7656,515.9375 789.7656,512.8125 Q789.7656,509.6875 791.0781,508.0313 Q792.4063,506.375 794.9063,506.375 Q795.6094,506.375 796.25,506.5313 Q796.9063,506.6875 797.4688,506.9844 L797.4688,509.7031 Q796.8438,509.125 796.25,508.8594 Q795.6563,508.5781 795.0313,508.5781 Q793.6875,508.5781 793,509.6563 Q792.3125,510.7188 792.3125,512.8125 Q792.3125,514.9063 793,515.9844 Q793.6875,517.0469 795.0313,517.0469 Q795.6563,517.0469 796.25,516.7813 Q796.8438,516.5 797.4688,515.9219 L797.4688,518.6406 Z " fill="#000000"/><text fill="#000000" font-family="sans-serif" font-size="12" lengthAdjust="spacingAndGlyphs" textLength="126" x="808.5" y="517.1543">GOF_glm_sim_param</text><line style="stroke:#A80036;stroke-width:1.5;" x1="780.5" x2="936.5" y1="529" y2="529"/><line style="stroke:#A80036;stroke-width:1.5;" x1="780.5" x2="936.5" y1="537" y2="537"/><!--MD5=[a35711cccd7f9c830393ca3250913c01]
class GOF_model_trainer--><rect codeLine="12" fill="#FEFECE" filter="url(#fs973o0w43gk2)" height="60.8047" id="GOF_model_trainer" style="stroke:#A80036;stroke-width:1.5;" width="149" x="960" y="376"/><ellipse cx="975" cy="392" fill="#B4A7E5" rx="11" ry="11" style="stroke:#A80036;stroke-width:1.0;"/><path d="M970.9219,387.7656 L970.9219,385.6094 L978.3125,385.6094 L978.3125,387.7656 L975.8438,387.7656 L975.8438,395.8438 L978.3125,395.8438 L978.3125,398 L970.9219,398 L970.9219,395.8438 L973.3906,395.8438 L973.3906,387.7656 L970.9219,387.7656 Z " fill="#000000"/><text fill="#000000" font-family="sans-serif" font-size="12" font-style="italic" lengthAdjust="spacingAndGlyphs" textLength="117" x="989" y="396.1543">GOF_model_trainer</text><line style="stroke:#A80036;stroke-width:1.5;" x1="961" x2="1108" y1="408" y2="408"/><line style="stroke:#A80036;stroke-width:1.5;" x1="961" x2="1108" y1="416" y2="416"/><ellipse cx="971" cy="427" fill="#84BE84" rx="3" ry="3" style="stroke:#038048;stroke-width:1.0;"/><text fill="#000000" font-family="sans-serif" font-size="11" font-style="italic" lengthAdjust="spacingAndGlyphs" textLength="99" x="980" y="430.2104">refit(model, data)</text><!--MD5=[898d72944be3d3152d7ed199c5d76c23]
class GOF_lm_trainer--><rect fill="#FEFECE" filter="url(#fs973o0w43gk2)" height="48" id="GOF_lm_trainer" style="stroke:#A80036;stroke-width:1.5;" width="125" x="972" y="497"/><ellipse cx="987" cy="513" fill="#ADD1B2" rx="11" ry="11" style="stroke:#A80036;stroke-width:1.0;"/><path d="M989.9688,518.6406 Q989.3906,518.9375 988.75,519.0781 Q988.1094,519.2344 987.4063,519.2344 Q984.9063,519.2344 983.5781,517.5938 Q982.2656,515.9375 982.2656,512.8125 Q982.2656,509.6875 983.5781,508.0313 Q984.9063,506.375 987.4063,506.375 Q988.1094,506.375 988.75,506.5313 Q989.4063,506.6875 989.9688,506.9844 L989.9688,509.7031 Q989.3438,509.125 988.75,508.8594 Q988.1563,508.5781 987.5313,508.5781 Q986.1875,508.5781 985.5,509.6563 Q984.8125,510.7188 984.8125,512.8125 Q984.8125,514.9063 985.5,515.9844 Q986.1875,517.0469 987.5313,517.0469 Q988.1563,517.0469 988.75,516.7813 Q989.3438,516.5 989.9688,515.9219 L989.9688,518.6406 Z " fill="#000000"/><text fill="#000000" font-family="sans-serif" font-size="12" lengthAdjust="spacingAndGlyphs" textLength="93" x="1001" y="517.1543">GOF_lm_trainer</text><line style="stroke:#A80036;stroke-width:1.5;" x1="973" x2="1096" y1="529" y2="529"/><line style="stroke:#A80036;stroke-width:1.5;" x1="973" x2="1096" y1="537" y2="537"/><!--MD5=[c30ee7d687ffc9c1a919aea6894388f3]
class GOF_glm_trainer--><rect fill="#FEFECE" filter="url(#fs973o0w43gk2)" height="48" id="GOF_glm_trainer" style="stroke:#A80036;stroke-width:1.5;" width="133" x="1132" y="497"/><ellipse cx="1147" cy="513" fill="#ADD1B2" rx="11" ry="11" style="stroke:#A80036;stroke-width:1.0;"/><path d="M1149.9688,518.6406 Q1149.3906,518.9375 1148.75,519.0781 Q1148.1094,519.2344 1147.4063,519.2344 Q1144.9063,519.2344 1143.5781,517.5938 Q1142.2656,515.9375 1142.2656,512.8125 Q1142.2656,509.6875 1143.5781,508.0313 Q1144.9063,506.375 1147.4063,506.375 Q1148.1094,506.375 1148.75,506.5313 Q1149.4063,506.6875 1149.9688,506.9844 L1149.9688,509.7031 Q1149.3438,509.125 1148.75,508.8594 Q1148.1563,508.5781 1147.5313,508.5781 Q1146.1875,508.5781 1145.5,509.6563 Q1144.8125,510.7188 1144.8125,512.8125 Q1144.8125,514.9063 1145.5,515.9844 Q1146.1875,517.0469 1147.5313,517.0469 Q1148.1563,517.0469 1148.75,516.7813 Q1149.3438,516.5 1149.9688,515.9219 L1149.9688,518.6406 Z " fill="#000000"/><text fill="#000000" font-family="sans-serif" font-size="12" lengthAdjust="spacingAndGlyphs" textLength="101" x="1161" y="517.1543">GOF_glm_trainer</text><line style="stroke:#A80036;stroke-width:1.5;" x1="1133" x2="1264" y1="529" y2="529"/><line style="stroke:#A80036;stroke-width:1.5;" x1="1133" x2="1264" y1="537" y2="537"/><!--MD5=[f6a87f2d6695f4082a711a0b914fdfe8]
class GOF_model_info_extractor--><rect codeLine="17" fill="#FEFECE" filter="url(#fs973o0w43gk2)" height="86.4141" id="GOF_model_info_extractor" style="stroke:#A80036;stroke-width:1.5;" width="221" x="342" y="230"/><ellipse cx="369.6" cy="246" fill="#B4A7E5" rx="11" ry="11" style="stroke:#A80036;stroke-width:1.0;"/><path d="M365.5219,241.7656 L365.5219,239.6094 L372.9125,239.6094 L372.9125,241.7656 L370.4438,241.7656 L370.4438,249.8438 L372.9125,249.8438 L372.9125,252 L365.5219,252 L365.5219,249.8438 L367.9906,249.8438 L367.9906,241.7656 L365.5219,241.7656 Z " fill="#000000"/><text fill="#000000" font-family="sans-serif" font-size="12" font-style="italic" lengthAdjust="spacingAndGlyphs" textLength="161" x="386.4" y="250.1543">GOF_model_info_extractor</text><line style="stroke:#A80036;stroke-width:1.5;" x1="343" x2="562" y1="262" y2="262"/><line style="stroke:#A80036;stroke-width:1.5;" x1="343" x2="562" y1="270" y2="270"/><ellipse cx="353" cy="281" fill="#84BE84" rx="3" ry="3" style="stroke:#038048;stroke-width:1.0;"/><text fill="#000000" font-family="sans-serif" font-size="11" font-style="italic" lengthAdjust="spacingAndGlyphs" textLength="117" x="362" y="284.2104">double[] yhat(model)</text><ellipse cx="353" cy="293.8047" fill="#84BE84" rx="3" ry="3" style="stroke:#038048;stroke-width:1.0;"/><text fill="#000000" font-family="sans-serif" font-size="11" font-style="italic" lengthAdjust="spacingAndGlyphs" textLength="170" x="362" y="297.0151">double[] y_minus_yhat(model)</text><ellipse cx="353" cy="306.6094" fill="#84BE84" rx="3" ry="3" style="stroke:#038048;stroke-width:1.0;"/><text fill="#000000" font-family="sans-serif" font-size="11" font-style="italic" lengthAdjust="spacingAndGlyphs" textLength="195" x="362" y="309.8198">double[] beta_x_covariates(model)</text><!--MD5=[a6c68d743468a84e4598206f5cc326be]
class GOF_lm_info_extractor--><rect fill="#FEFECE" filter="url(#fs973o0w43gk2)" height="48" id="GOF_lm_info_extractor" style="stroke:#A80036;stroke-width:1.5;" width="169" x="241" y="382.5"/><ellipse cx="256" cy="398.5" fill="#ADD1B2" rx="11" ry="11" style="stroke:#A80036;stroke-width:1.0;"/><path d="M258.9688,404.1406 Q258.3906,404.4375 257.75,404.5781 Q257.1094,404.7344 256.4063,404.7344 Q253.9063,404.7344 252.5781,403.0938 Q251.2656,401.4375 251.2656,398.3125 Q251.2656,395.1875 252.5781,393.5313 Q253.9063,391.875 256.4063,391.875 Q257.1094,391.875 257.75,392.0313 Q258.4063,392.1875 258.9688,392.4844 L258.9688,395.2031 Q258.3438,394.625 257.75,394.3594 Q257.1563,394.0781 256.5313,394.0781 Q255.1875,394.0781 254.5,395.1563 Q253.8125,396.2188 253.8125,398.3125 Q253.8125,400.4063 254.5,401.4844 Q255.1875,402.5469 256.5313,402.5469 Q257.1563,402.5469 257.75,402.2813 Q258.3438,402 258.9688,401.4219 L258.9688,404.1406 Z " fill="#000000"/><text fill="#000000" font-family="sans-serif" font-size="12" lengthAdjust="spacingAndGlyphs" textLength="137" x="270" y="402.6543">GOF_lm_info_extractor</text><line style="stroke:#A80036;stroke-width:1.5;" x1="242" x2="409" y1="414.5" y2="414.5"/><line style="stroke:#A80036;stroke-width:1.5;" x1="242" x2="409" y1="422.5" y2="422.5"/><!--MD5=[a911ee8fe5278609a9687bf6fe994961]
class GOF_glm_info_extractor--><rect fill="#FEFECE" filter="url(#fs973o0w43gk2)" height="48" id="GOF_glm_info_extractor" style="stroke:#A80036;stroke-width:1.5;" width="177" x="445" y="382.5"/><ellipse cx="460" cy="398.5" fill="#ADD1B2" rx="11" ry="11" style="stroke:#A80036;stroke-width:1.0;"/><path d="M462.9688,404.1406 Q462.3906,404.4375 461.75,404.5781 Q461.1094,404.7344 460.4063,404.7344 Q457.9063,404.7344 456.5781,403.0938 Q455.2656,401.4375 455.2656,398.3125 Q455.2656,395.1875 456.5781,393.5313 Q457.9063,391.875 460.4063,391.875 Q461.1094,391.875 461.75,392.0313 Q462.4063,392.1875 462.9688,392.4844 L462.9688,395.2031 Q462.3438,394.625 461.75,394.3594 Q461.1563,394.0781 460.5313,394.0781 Q459.1875,394.0781 458.5,395.1563 Q457.8125,396.2188 457.8125,398.3125 Q457.8125,400.4063 458.5,401.4844 Q459.1875,402.5469 460.5313,402.5469 Q461.1563,402.5469 461.75,402.2813 Q462.3438,402 462.9688,401.4219 L462.9688,404.1406 Z " fill="#000000"/><text fill="#000000" font-family="sans-serif" font-size="12" lengthAdjust="spacingAndGlyphs" textLength="145" x="474" y="402.6543">GOF_glm_info_extractor</text><line style="stroke:#A80036;stroke-width:1.5;" x1="446" x2="621" y1="414.5" y2="414.5"/><line style="stroke:#A80036;stroke-width:1.5;" x1="446" x2="621" y1="422.5" y2="422.5"/><!--MD5=[060df7291ef12794aa7a346b3c52a44e]
class GOF_model_resample--><rect codeLine="24" fill="#FEFECE" filter="url(#fs973o0w43gk2)" height="86.4141" id="GOF_model_resample" style="stroke:#A80036;stroke-width:1.5;" width="165" x="657" y="230"/><ellipse cx="672" cy="246" fill="#A9DCDF" rx="11" ry="11" style="stroke:#A80036;stroke-width:1.0;"/><path d="M672.1094,241.3438 L670.9531,246.4219 L673.2813,246.4219 L672.1094,241.3438 Z M670.625,239.1094 L673.6094,239.1094 L676.9688,251.5 L674.5156,251.5 L673.75,248.4375 L670.4688,248.4375 L669.7188,251.5 L667.2813,251.5 L670.625,239.1094 Z " fill="#000000"/><text fill="#000000" font-family="sans-serif" font-size="12" font-style="italic" lengthAdjust="spacingAndGlyphs" textLength="133" x="686" y="250.1543">GOF_model_resample</text><line style="stroke:#A80036;stroke-width:1.5;" x1="658" x2="821" y1="262" y2="262"/><rect fill="none" height="6" style="stroke:#C82930;stroke-width:1.0;" width="6" x="665" y="270"/><text fill="#000000" font-family="sans-serif" font-size="11" lengthAdjust="spacingAndGlyphs" textLength="125" x="677" y="276.2104">GOF_model_simulator</text><rect fill="none" height="6" style="stroke:#C82930;stroke-width:1.0;" width="6" x="665" y="282.8047"/><text fill="#000000" font-family="sans-serif" font-size="11" lengthAdjust="spacingAndGlyphs" textLength="109" x="677" y="289.0151">GOF_model_trainer</text><line style="stroke:#A80036;stroke-width:1.5;" x1="658" x2="821" y1="295.6094" y2="295.6094"/><ellipse cx="668" cy="306.6094" fill="#84BE84" rx="3" ry="3" style="stroke:#038048;stroke-width:1.0;"/><text fill="#000000" font-family="sans-serif" font-size="11" lengthAdjust="spacingAndGlyphs" textLength="62" x="677" y="309.8198">resample()</text><!--MD5=[643488597e997d1218b29e7dc00ef1a0]
class GOF_model_test--><rect codeLine="31" fill="#FEFECE" filter="url(#fs973o0w43gk2)" height="163.2422" id="GOF_model_test" style="stroke:#A80036;stroke-width:1.5;" width="329" x="288" y="7"/><ellipse cx="398.25" cy="23" fill="#ADD1B2" rx="11" ry="11" style="stroke:#A80036;stroke-width:1.0;"/><path d="M401.2188,28.6406 Q400.6406,28.9375 400,29.0781 Q399.3594,29.2344 398.6563,29.2344 Q396.1563,29.2344 394.8281,27.5938 Q393.5156,25.9375 393.5156,22.8125 Q393.5156,19.6875 394.8281,18.0313 Q396.1563,16.375 398.6563,16.375 Q399.3594,16.375 400,16.5313 Q400.6563,16.6875 401.2188,16.9844 L401.2188,19.7031 Q400.5938,19.125 400,18.8594 Q399.4063,18.5781 398.7813,18.5781 Q397.4375,18.5781 396.75,19.6563 Q396.0625,20.7188 396.0625,22.8125 Q396.0625,24.9063 396.75,25.9844 Q397.4375,27.0469 398.7813,27.0469 Q399.4063,27.0469 400,26.7813 Q400.5938,26.5 401.2188,25.9219 L401.2188,28.6406 Z " fill="#000000"/><text fill="#000000" font-family="sans-serif" font-size="12" lengthAdjust="spacingAndGlyphs" textLength="100" x="418.75" y="27.1543">GOF_model_test</text><line style="stroke:#A80036;stroke-width:1.5;" x1="289" x2="616" y1="39" y2="39"/><rect fill="none" height="6" style="stroke:#C82930;stroke-width:1.0;" width="6" x="296" y="47"/><text fill="#000000" font-family="sans-serif" font-size="11" lengthAdjust="spacingAndGlyphs" textLength="155" x="308" y="53.2104">GOF_model_info_exctractor</text><rect fill="none" height="6" style="stroke:#C82930;stroke-width:1.0;" width="6" x="296" y="59.8047"/><text fill="#000000" font-family="sans-serif" font-size="11" lengthAdjust="spacingAndGlyphs" textLength="206" x="308" y="66.0151">GOF_model_resample_skeleton RSS</text><rect fill="none" height="6" style="stroke:#C82930;stroke-width:1.0;" width="6" x="296" y="72.6094"/><text fill="#000000" font-family="sans-serif" font-size="11" lengthAdjust="spacingAndGlyphs" textLength="125" x="308" y="78.8198">Rn1_statistic Rn1_stat</text><rect fill="none" height="6" style="stroke:#C82930;stroke-width:1.0;" width="6" x="296" y="85.4141"/><text fill="#000000" font-family="sans-serif" font-size="11" lengthAdjust="spacingAndGlyphs" textLength="96" x="308" y="91.6245">double[] Rn1_org</text><rect fill="none" height="6" style="stroke:#C82930;stroke-width:1.0;" width="6" x="296" y="98.2188"/><text fill="#000000" font-family="sans-serif" font-size="11" lengthAdjust="spacingAndGlyphs" textLength="102" x="308" y="104.4292">double[] Rn1_boot</text><line style="stroke:#A80036;stroke-width:1.5;" x1="289" x2="616" y1="111.0234" y2="111.0234"/><rect fill="#F24D5C" height="6" style="stroke:#C82930;stroke-width:1.0;" width="6" x="296" y="119.0234"/><text fill="#000000" font-family="sans-serif" font-size="11" lengthAdjust="spacingAndGlyphs" textLength="303" x="308" y="125.2339">double[] Rn1(y_minus_yhat, order_beta_x_covariates)</text><ellipse cx="299" cy="134.8281" fill="#84BE84" rx="3" ry="3" style="stroke:#038048;stroke-width:1.0;"/><text fill="#000000" font-family="sans-serif" font-size="11" lengthAdjust="spacingAndGlyphs" textLength="78" x="308" y="138.0386">get_Rn1_org()</text><ellipse cx="299" cy="147.6328" fill="#84BE84" rx="3" ry="3" style="stroke:#038048;stroke-width:1.0;"/><text fill="#000000" font-family="sans-serif" font-size="11" lengthAdjust="spacingAndGlyphs" textLength="84" x="308" y="150.8433">get_Rn1_boot()</text><ellipse cx="299" cy="160.4375" fill="#84BE84" rx="3" ry="3" style="stroke:#038048;stroke-width:1.0;"/><text fill="#000000" font-family="sans-serif" font-size="11" lengthAdjust="spacingAndGlyphs" textLength="69" x="308" y="163.6479">get_pvalue()</text><!--MD5=[6bffb7db188ce1bcd5d6fac161504234]
reverse link Rn1_statistic to Rn1_KS--><path codeLine="4" d="M122.77,318.66 C103.79,339.99 81.86,364.63 66.22,382.21 " fill="none" id="Rn1_statistic-backto-Rn1_KS" style="stroke:#A80036;stroke-width:1.0;"/><polygon fill="none" points="117.72,313.8,136.24,303.51,128.18,323.11,117.72,313.8" style="stroke:#A80036;stroke-width:1.0;"/><!--MD5=[899a6a078e3b68600229dbfeb154cfe5]
reverse link Rn1_statistic to Rn1_CvM--><path codeLine="5" d="M162.5,323.71 C162.5,343.79 162.5,366 162.5,382.21 " fill="none" id="Rn1_statistic-backto-Rn1_CvM" style="stroke:#A80036;stroke-width:1.0;"/><polygon fill="none" points="155.5,323.51,162.5,303.51,169.5,323.51,155.5,323.51" style="stroke:#A80036;stroke-width:1.0;"/><!--MD5=[10ce979e2d5b01e47f84753d2b8b5b16]
reverse link GOF_model_simulator to GOF_lm_sim_param--><path codeLine="9" d="M637.72,443.17 C587.5,460.77 528.38,481.49 484.2,496.97 " fill="none" id="GOF_model_simulator-backto-GOF_lm_sim_param" style="stroke:#A80036;stroke-width:1.0;"/><polygon fill="none" points="635.64,436.48,656.83,436.47,640.28,449.69,635.64,436.48" style="stroke:#A80036;stroke-width:1.0;"/><!--MD5=[11160c20e8c923fdd987b9990b6b9245]
reverse link GOF_model_simulator to GOF_lm_sim_wild_rademacher--><path codeLine="10" d="M698.51,452.27 C684.59,467.47 669.61,483.83 657.86,496.67 " fill="none" id="GOF_model_simulator-backto-GOF_lm_sim_wild_rademacher" style="stroke:#A80036;stroke-width:1.0;"/><polygon fill="none" points="693.77,447.08,712.44,437.06,704.1,456.54,693.77,447.08" style="stroke:#A80036;stroke-width:1.0;"/><!--MD5=[64fd6074f6d8bbf03a3c687cc46fbf1d]
reverse link GOF_model_simulator to GOF_glm_sim_param--><path codeLine="11" d="M785.34,450.84 C801.84,466.43 819.82,483.43 833.82,496.67 " fill="none" id="GOF_model_simulator-backto-GOF_glm_sim_param" style="stroke:#A80036;stroke-width:1.0;"/><polygon fill="none" points="780.49,455.88,770.77,437.06,790.11,445.71,780.49,455.88" style="stroke:#A80036;stroke-width:1.0;"/><!--MD5=[e837d437a59d41c948c9a43d1455c8e2]
reverse link GOF_model_trainer to GOF_lm_trainer--><path codeLine="15" d="M1034.5,457.11 C1034.5,470.88 1034.5,485.18 1034.5,496.67 " fill="none" id="GOF_model_trainer-backto-GOF_lm_trainer" style="stroke:#A80036;stroke-width:1.0;"/><polygon fill="none" points="1027.5,457.06,1034.5,437.06,1041.5,457.06,1027.5,457.06" style="stroke:#A80036;stroke-width:1.0;"/><!--MD5=[5f788e9c635e652c699cac38994d3e3b]
reverse link GOF_model_trainer to GOF_glm_trainer--><path codeLine="16" d="M1094.28,448.5 C1118.02,464.79 1144.45,482.92 1164.75,496.85 " fill="none" id="GOF_model_trainer-backto-GOF_glm_trainer" style="stroke:#A80036;stroke-width:1.0;"/><polygon fill="none" points="1090.12,454.14,1077.59,437.06,1098.04,442.6,1090.12,454.14" style="stroke:#A80036;stroke-width:1.0;"/><!--MD5=[5600faca7ee220aca6cf443fbc4263d9]
reverse link GOF_model_info_extractor to GOF_lm_info_extractor--><path codeLine="22" d="M397.55,330.9 C380.03,349.04 361.63,368.09 347.81,382.4 " fill="none" id="GOF_model_info_extractor-backto-GOF_lm_info_extractor" style="stroke:#A80036;stroke-width:1.0;"/><polygon fill="none" points="392.69,325.85,411.62,316.33,402.76,335.58,392.69,325.85" style="stroke:#A80036;stroke-width:1.0;"/><!--MD5=[3cbd631b6334d58c9aae363d9aebc00b]
reverse link GOF_model_info_extractor to GOF_glm_info_extractor--><path codeLine="23" d="M489.22,333.61 C499.88,350.92 510.9,368.8 519.27,382.4 " fill="none" id="GOF_model_info_extractor-backto-GOF_glm_info_extractor" style="stroke:#A80036;stroke-width:1.0;"/><polygon fill="none" points="483.1,337.03,478.57,316.33,495.02,329.69,483.1,337.03" style="stroke:#A80036;stroke-width:1.0;"/><!--MD5=[5f077592272006905200301bcbc2ad42]
reverse link GOF_model_resample to GOF_model_simulator--><path codeLine="29" d="M739.5,329.41 C739.5,345.31 739.5,362.03 739.5,375.74 " fill="none" id="GOF_model_resample-backto-GOF_model_simulator" style="stroke:#A80036;stroke-width:1.0;"/><polygon fill="#A80036" points="739.5,316.33,735.5,322.33,739.5,328.33,743.5,322.33,739.5,316.33" style="stroke:#A80036;stroke-width:1.0;"/><!--MD5=[7b35f3e3d92944d36cf5ee230c1aca5a]
reverse link GOF_model_resample to GOF_model_trainer--><path codeLine="30" d="M834.2,316.21 C877.92,335.7 928.78,358.38 968.31,376 " fill="none" id="GOF_model_resample-backto-GOF_model_trainer" style="stroke:#A80036;stroke-width:1.0;"/><polygon fill="#A80036" points="822.07,310.8,825.9242,316.8947,833.0325,315.681,829.1782,309.5863,822.07,310.8" style="stroke:#A80036;stroke-width:1.0;"/><!--MD5=[8bb073ebf150e45460be580c11ed95d6]
reverse link GOF_model_test to GOF_model_info_extractor--><path codeLine="42" d="M452.5,183.19 C452.5,199.56 452.5,215.82 452.5,229.87 " fill="none" id="GOF_model_test-backto-GOF_model_info_extractor" style="stroke:#A80036;stroke-width:1.0;"/><polygon fill="#A80036" points="452.5,170.08,448.5,176.08,452.5,182.08,456.5,176.08,452.5,170.08" style="stroke:#A80036;stroke-width:1.0;"/><!--MD5=[16ddf892a17a22c00730b252afc64c17]
reverse link GOF_model_test to GOF_model_resample--><path codeLine="43" d="M590.28,177.11 C619.19,195.5 648.42,214.08 673.25,229.87 " fill="none" id="GOF_model_test-backto-GOF_model_resample" style="stroke:#A80036;stroke-width:1.0;"/><polygon fill="#A80036" points="579.22,170.08,582.1389,176.6739,589.3483,176.5157,586.4294,169.9217,579.22,170.08" style="stroke:#A80036;stroke-width:1.0;"/><!--MD5=[6314d1d95ffad91a04b5312f391f2aa1]
reverse link GOF_model_test to Rn1_statistic--><path codeLine="44" d="M313.38,177.05 C275.89,200.64 237.88,224.56 209.39,242.49 " fill="none" id="GOF_model_test-backto-Rn1_statistic" style="stroke:#A80036;stroke-width:1.0;"/><polygon fill="#A80036" points="324.46,170.08,317.2513,169.8932,314.3063,176.4755,321.515,176.6623,324.46,170.08" style="stroke:#A80036;stroke-width:1.0;"/><!--MD5=[0ba1702ae7b3e2162587b6a312743115]
@startuml
interface Rn1_statistic {
    + {abstract} double calc_statistic(Rn1)
}
Rn1_statistic <|- - Rn1_KS
Rn1_statistic <|- - Rn1_CvM
interface GOF_model_simulator {
    + {abstract} resample_y(model)
}
GOF_model_simulator <|- - GOF_lm_sim_param
GOF_model_simulator <|- - GOF_lm_sim_wild_rademacher
GOF_model_simulator <|- - GOF_glm_sim_param
interface GOF_model_trainer {
    + {abstract} refit(model, data)
}
GOF_model_trainer <|- - GOF_lm_trainer
GOF_model_trainer <|- - GOF_glm_trainer
interface GOF_model_info_extractor {
    + {abstract} double[] yhat(model)
    + {abstract} double[] y_minus_yhat(model)
    + {abstract} double[] beta_x_covariates(model)
}
GOF_model_info_extractor <|- - GOF_lm_info_extractor
GOF_model_info_extractor <|- - GOF_glm_info_extractor
abstract class GOF_model_resample {
    - GOF_model_simulator
    - GOF_model_trainer
    + resample()
}
GOF_model_resample *- - GOF_model_simulator
GOF_model_resample *- - GOF_model_trainer
class GOF_model_test {
    - GOF_model_info_exctractor
    - GOF_model_resample_skeleton RSS
    - Rn1_statistic Rn1_stat
    - double[] Rn1_org
    - double[] Rn1_boot
    - double[] Rn1(y_minus_yhat, order_beta_x_covariates)
    + get_Rn1_org()
    + get_Rn1_boot()
    + get_pvalue()
}
GOF_model_test *- - GOF_model_info_extractor
GOF_model_test *- - GOF_model_resample
GOF_model_test *- - Rn1_statistic
@enduml

PlantUML version 1.2020.26(Mon Dec 21 17:45:07 UTC 2020)
(GPL source distribution)
Java Runtime: OpenJDK Runtime Environment
JVM: OpenJDK 64-Bit Server VM
Default Encoding: UTF-8
Language: en
Country: US
--></g></svg>